<?xml version="1.0" encoding="utf-8"?>
<!-- Generator: Adobe Illustrator 26.0.3, SVG Export Plug-In . SVG Version: 6.00 Build 0)  -->
<svg version="1.1" id="Layer_1" xmlns="http://www.w3.org/2000/svg" xmlns:xlink="http://www.w3.org/1999/xlink" x="0px" y="0px"
	 viewBox="0 0 97.2 23.6" style="enable-background:new 0 0 97.2 23.6;" xml:space="preserve">
<style type="text/css">
	.st0{fill:#494949;}
</style>
<g id="Group_1">
	<path id="Path_1" class="st0" d="M3.1,18.9l1.6-4.3l1.5,4.4L3.1,18.9L3.1,18.9z M7.8,23.3h1.5L5.4,12.8H4L0,23.3h1.5L2.6,20h4
		L7.8,23.3z M14.8,21c0,0.9-0.7,1.3-1.9,1.3c-0.8,0.1-1.5-0.3-1.9-0.9l-1.4,0.2c0.6,1.1,1.7,1.6,3.3,1.6c2.2,0,3.3-1.2,3.3-2.5
		c0-1.6-1.5-2.1-3.3-2.5C12,18.2,11,17.9,11,17.1c0-0.5,0.5-1.2,1.6-1.2c0.7,0,1.4,0.4,1.8,1l1.2-0.5c-0.6-1-1.7-1.6-2.9-1.4
		c-1.9,0-3.1,0.9-3.1,2.3c0,1.6,1.4,2,2.8,2.3C13.6,19.9,14.8,20.1,14.8,21L14.8,21z M19.1,12.8l-1.4,0.6v1.9h-1.3v1.1h1.3v5.1
		c0,1,0,1.8,1.5,1.8c0.4,0,0.9-0.1,1.3-0.1v-1.1c-0.3,0.1-0.6,0.1-0.9,0.2c-0.6,0-0.6-0.4-0.6-1.3v-4.5h1.4v-1.1h-1.4L19.1,12.8
		L19.1,12.8z M21.8,15.3v8h1.3v-3.7c-0.1-0.7,0-1.4,0.3-2.1c0.5-0.7,1.1-1,2.4-1v-1.4c-1.1-0.1-2.2,0.5-2.7,1.5v-1.4L21.8,15.3z
		 M33.7,12.8v1.3h6l-5.9,7.8v1.4h7.7V22h-6.1l5.9-7.9v-1.3L33.7,12.8L33.7,12.8z M49.7,15.3v8H51v-4.6c-0.1-0.6,0.2-1.3,0.6-1.7
		c0.4-0.4,0.9-0.6,1.5-0.6c0.8-0.1,1.5,0.4,1.7,1.1c0.1,0.4,0.1,0.9,0.1,1.3v4.5h1.3v-4.7c0-0.5,0-1.1-0.1-1.6
		c-0.4-1.1-1.4-1.9-2.6-1.8c-1-0.1-2,0.5-2.5,1.4v-1.2L49.7,15.3L49.7,15.3z M70.4,21.3c-0.3,0.7-1.1,1.1-1.8,1
		c-0.9,0-2.4-0.5-2.4-3.2c0-0.7,0.1-3.2,2.3-3.2c0.8,0,1.5,0.4,1.9,1.1l1.2-0.5c-0.7-1-1.9-1.6-3.2-1.5c-2.5,0-3.8,2-3.8,4.3
		c0,2,1.1,4.1,3.9,4.1c1.2,0.1,2.4-0.5,3-1.6L70.4,21.3z M43.2,18.5h4.2c-0.1-2.1-1.3-2.4-2.1-2.4C44.2,16,43.4,16.8,43.2,18.5
		L43.2,18.5z M48.6,21.8c-0.6,1.1-1.8,1.7-3,1.6c-2.3,0-3.7-1.6-3.7-4.2c0-3,2-4.1,3.6-4.1c1.7,0,3.1,1.2,3.3,2.8
		c0.1,0.5,0.1,1.1,0.1,1.6h-5.7c0,1.3,0.5,3,2.4,3c0.7,0,1.3-0.3,1.6-0.9L48.6,21.8z M58.5,18.5h4.2c-0.1-2.1-1.3-2.4-2.1-2.4
		C59.4,16,58.6,16.8,58.5,18.5z M63.7,21.8c-0.6,1.1-1.8,1.7-3,1.6c-2.3,0-3.7-1.6-3.7-4.2c0-3,2-4.1,3.6-4.1c1.7,0,3.1,1.2,3.3,2.8
		c0.1,0.5,0.1,1.1,0.1,1.6h-5.8c0,1.3,0.5,3,2.4,3c0.7,0,1.3-0.3,1.7-0.9L63.7,21.8z M78.9,23.3h-1.4c-0.1-0.4-0.2-0.8-0.2-1.2
		c-0.7,0.8-1.6,1.3-2.7,1.3c-1.3,0.2-2.5-0.8-2.7-2.1c0,0,0,0,0,0c0,0,0-0.1,0-0.2c0-0.4,0.1-0.8,0.3-1.2c0.4-0.7,1.3-1.2,3.7-1.4
		l1.3-0.1v-0.2c0-0.8,0-2.2-1.8-2.2c-1.1,0-1.5,0.6-1.6,1l-1.2-0.5c0,0,0-0.1,0.1-0.1c0.6-0.9,1.7-1.4,2.8-1.3
		c0.8,0,1.6,0.2,2.3,0.7c0.6,0.5,0.9,1.2,0.8,2l0.1,4.1C78.7,22.3,78.8,22.8,78.9,23.3L78.9,23.3z M77.1,21.1
		c0.2-0.4,0.2-0.6,0.2-1.8c-0.7,0.1-1.4,0.2-2.1,0.4c-1.5,0.3-1.7,0.9-1.7,1.4s0.5,1.2,1.5,1.2C75.9,22.3,76.7,21.9,77.1,21.1
		L77.1,21.1z M32.7,23.3h-1.4c-0.1-0.4-0.1-0.8-0.2-1.2c-0.7,0.8-1.6,1.3-2.7,1.3c-1.3,0.2-2.5-0.8-2.7-2.1c0,0,0-0.1,0-0.1
		c0-0.4,0.1-0.8,0.3-1.2c0.5-0.7,1.3-1.2,3.7-1.4l1.3-0.1v-0.2c0-0.8,0-2.2-1.8-2.2c-1.1,0-1.5,0.6-1.6,1l-1.2-0.5
		c0,0,0-0.1,0.1-0.1c0.6-0.9,1.6-1.4,2.7-1.3c0.8,0,1.6,0.2,2.3,0.7c0.6,0.5,0.9,1.2,0.9,2v4.1C32.5,22.3,32.6,22.8,32.7,23.3
		L32.7,23.3z M30.9,21.1c0.2-0.4,0.2-0.6,0.2-1.8c-0.7,0.1-1.4,0.2-2.1,0.4c-1.5,0.3-1.7,0.9-1.7,1.4s0.5,1.2,1.5,1.2
		C29.7,22.3,30.5,21.8,30.9,21.1L30.9,21.1z"/>
	<path id="Path_2" class="st0" d="M87.6,16.6L87,17c-2.4-1.3-7.6-3.9-8-4.1s-1.3-0.6-1.2-1.4c0.1-1.1,2.1-3.5,2.9-4.6
		c4.5-5.4,6.4-7.1,7.8-7s2.2,1.6,2.3,8.4C90,8.2,89.1,8,88.2,7.7c-0.1-1-0.3-2.5-0.3-3s-0.2-0.8-0.4-0.8s-0.9,0.6-1.5,1.2
		c-0.3,0.3-1,1-1.8,1.9c-0.5-0.1-1,0.1-1.4,0.4c-0.2,0.3-0.3,0.8-0.1,1.1l-1.1,1.1c-0.9,0.9-1.9,1.7-2,2.1s0.4,0.6,1.1,1
		C82.2,13.6,86.2,15.8,87.6,16.6z M93.8,9.8c-3.1-1.2-6.3-2-9.5-2.5c-1.4-0.2-2,0.3-1.4,1.6c0.9,1.9,2.2,3.7,3.6,5.2
		c1.5,1.6,3.2,2.1,3.8-0.4c0-0.1,0.1-0.2,0.1-0.3c0.1-0.6,0.2-1.2,0.3-1.9c-0.7-0.3-1.5-0.7-2.2-1c0,0.6,0.1,1.6,0.1,2.4v0.3
		c0,1.3-0.4,1.3-1.1,0.8s-3.4-4-3.7-5.5c0-0.1,0-0.1,0.1-0.1s0,0,0.1,0l0,0c0.6,0.2,2.5,1,4.5,1.8c0.8,0.3,1.6,0.6,2.3,1
		s1.3,0.6,1.8,0.9c0.8,0.4,1.2,0.8,0.8,1.1c-1.8,1.8-7.9,4.3-10,7.5l0,0c0,0,0,0.1-0.1,0.1l0,0c-0.1,0.3-0.3,0.6-0.3,0.9
		c-0.1,0.7,0.3,1.3,1.3,1.6c0.3,0.1,0.5,0.1,0.8,0.2H85c2.8-0.1,5.6-0.7,8.3-1.6c1.5-0.7,1.1-1.4,0.7-1.7s-2.1-1.1-3-1.5
		c-0.2,0.1-0.4,0.3-0.6,0.4c0.8,0.5,1.6,1,2.3,1.5c0.1,0.1,0.1,0.2-0.1,0.2h-0.1c-1.3,0.1-3.9,0.3-5.1,0.3c-0.2,0-0.4,0-0.5,0
		c0.3-0.3,0.6-0.5,0.8-0.6c2.6-1.8,6.9-4.4,8.1-5.4C96.8,14.1,99.3,11.7,93.8,9.8z"/>
</g>
</svg>
