<?xml version="1.0" encoding="utf-8"?>
<!-- Generator: Adobe Illustrator 26.0.3, SVG Export Plug-In . SVG Version: 6.00 Build 0)  -->
<svg version="1.1" id="Capa_1" xmlns="http://www.w3.org/2000/svg" xmlns:xlink="http://www.w3.org/1999/xlink" x="0px" y="0px"
	 viewBox="0 0 230 53" style="enable-background:new 0 0 230 53;" xml:space="preserve">
<style type="text/css">
	.st0{stroke:#D1D1D1;stroke-width:2.8023;stroke-linecap:round;stroke-miterlimit:2.4368;}
	.st1{stroke:#C8C8C8;stroke-width:2.8023;stroke-linecap:round;stroke-miterlimit:2.4368;}
	.st2{stroke:#BEBEBE;stroke-width:2.8023;stroke-linecap:round;stroke-miterlimit:2.4368;}
	.st3{stroke:#B5B5B5;stroke-width:2.8023;stroke-linecap:round;stroke-miterlimit:2.4368;}
	.st4{stroke:#ABABAB;stroke-width:2.8023;stroke-linecap:round;stroke-miterlimit:2.4368;}
	.st5{stroke:#A1A1A1;stroke-width:2.8023;stroke-linecap:round;stroke-miterlimit:2.4368;}
	.st6{stroke:#979797;stroke-width:2.8023;stroke-linecap:round;stroke-miterlimit:2.4368;}
	.st7{stroke:#8C8C8C;stroke-width:2.8023;stroke-linecap:round;stroke-miterlimit:2.4368;}
	.st8{stroke:#888888;stroke-width:2.8023;stroke-linecap:round;stroke-miterlimit:2.4368;}
	.st9{stroke:#868686;stroke-width:2.8023;stroke-linecap:round;stroke-miterlimit:2.4368;}
	.st10{stroke:#848484;stroke-width:2.8023;stroke-linecap:round;stroke-miterlimit:2.4368;}
	.st11{stroke:#828282;stroke-width:2.8023;stroke-linecap:round;stroke-miterlimit:2.4368;}
	.st12{fill:#5A5A5A;}
</style>
<g>
	<path class="st0" d="M4.5,50.2H16"/>
	<path class="st1" d="M22.7,50.2h11.6"/>
	<path class="st2" d="M41,50.2h11.6"/>
	<path class="st3" d="M59.3,50.2h11.6"/>
	<path class="st4" d="M77.6,50.2h11.6"/>
	<path class="st5" d="M95.8,50.2h11.6"/>
	<path class="st6" d="M114.1,50.2h11.6"/>
	<path class="st7" d="M132.4,50.2H144"/>
	<path class="st8" d="M150.7,50.2h11.6"/>
	<path class="st9" d="M168.9,50.2h11.6"/>
	<path class="st10" d="M187.2,50.2h11.6"/>
	<path class="st11" d="M205.5,50.2h11.6"/>
</g>
<path class="st12" d="M104.5,1.5v14.9c-2.3-3.5-6.2-5.5-10.4-5.5c-3.8,0-6.9,1.3-9.6,4c-2.6,2.6-4,6.1-3.9,9.7c0,3.9,1.3,7.1,4,9.8
	c2.6,2.7,5.8,4.1,9.4,4.1c2.1,0,4.1-0.5,5.8-1.3c1.7-0.9,3.3-2.2,4.7-3.9v4.5h3.4V1.5H104.5z M16.2,10.6c-1.8,0-3.7,0.5-5.4,1.5
	c-1.4,1-2.7,2.2-3.6,3.7v-4.6H3.9v26.6h3.4V26.6c0-3.4,0.4-5.8,1-7.4c0.6-1.5,1.6-2.9,3-3.8c1.3-0.9,2.8-1.4,4.3-1.4
	c1.3,0,2.5,0.4,3.5,1c1,0.7,1.7,1.6,2.1,2.7c0.4,1.2,0.5,3.4,0.5,6.6v13.6H25V27.5c0-3.8,0.3-6.6,0.9-8.2c0.6-1.6,1.6-2.9,3-3.9
	s2.8-1.5,4.4-1.5c1.3,0,2.4,0.3,3.4,1c1,0.6,1.6,1.5,2.1,2.6c0.4,1.1,0.6,3,0.6,5.9v14.5h3.4V23.4c0-3.3-0.3-5.8-1-7.5
	c-1.2-3.3-4.4-5.4-7.9-5.3c-1.9,0-3.7,0.6-5.4,1.6c-1.6,1.1-3,2.7-4.2,4.8c-0.5-1.5-1.2-2.7-1.8-3.6c-0.8-0.9-1.7-1.6-2.8-2
	C18.6,10.8,17.4,10.6,16.2,10.6L16.2,10.6z M62,10.6c-4,0-7.2,1.5-9.7,4.4c-2.4,2.6-3.7,6-3.7,9.6c0,3.7,1.2,6.9,3.8,9.7
	c2.4,2.7,5.7,4.1,9.6,4.1c3.7,0.1,7.2-1.4,9.6-4.2c2.4-2.6,3.8-6.1,3.7-9.7c0-3.7-1.2-6.9-3.5-9.6C69.3,12.1,65.7,10.5,62,10.6
	L62,10.6z M127.5,10.6c-4.3,0-7.7,1.6-10.3,5c-2,2.6-3,5.6-3,9c0,3.6,1.2,6.8,3.6,9.6c2.5,2.9,6.1,4.4,9.9,4.3
	c3.4,0,6.7-1.2,9.1-3.5c1.2-1.1,2.3-2.6,3.2-4.4l-2.7-1.5c-1,1.8-1.9,3-2.9,3.8c-2,1.7-4.4,2.6-7,2.6c-2.7,0-5-1-6.8-2.9
	c-1.9-2-2.9-4.5-2.9-7.6h23.3c0-3.7-1-6.7-2.9-9.1C135.6,12.4,131.6,10.5,127.5,10.6z M156,10.6c-1.3,0-2.5,0.4-3.7,1.1
	c-1.4,0.9-2.5,2.1-3.4,3.5v-4h-3.5v26.6h3.5v-8.9c0-4.6,0.2-7.7,0.7-9.2c0.6-2,1.4-3.5,2.4-4.4c0.9-0.9,2.1-1.4,3.4-1.4
	c0.4,0,1,0.1,1.8,0.5l1.8-2.9C158,10.8,157,10.5,156,10.6L156,10.6z M176.1,10.6c-1.9,0-3.7,0.4-5.4,1.3c-1.8,1-3.3,2.4-4.4,4.1
	v-4.8H163v26.6h3.4V28c0-3.5,0.2-5.9,0.5-7.2c0.5-2,1.6-3.7,3.2-5.1c1.6-1.4,3.5-2.1,5.5-2.1c1.8,0,3.2,0.5,4.3,1.3
	c1.2,1,2,2.4,2.3,4c0.3,1,0.4,3,0.4,6.2v12.7h3.4V24.2c0-3.7-0.4-6.3-1.1-8c-0.7-1.7-1.8-3-3.4-4.1C179.8,11,178,10.5,176.1,10.6
	L176.1,10.6z M204.8,10.6c-3.6,0-6.7,1.3-9.3,4c-2.6,2.6-4,6.2-3.9,9.8c-0.1,3.7,1.3,7.3,3.8,9.9c4.7,5.1,12.6,5.5,17.7,0.8
	c0.7-0.6,1.2-1.3,1.8-2v4.6h3.3V11.2H215v4.9c-1.1-1.7-2.7-3.2-4.5-4.2c-1.7-0.9-3.7-1.3-5.6-1.3H204.8z M127.5,13.8
	c1.6,0,3,0.4,4.4,1c1.5,0.6,2.6,1.5,3.4,2.6c0.8,1.1,1.5,2.5,1.9,4.3H118c0.7-2.4,1.7-4.3,3-5.5C122.8,14.7,125,13.9,127.5,13.8
	L127.5,13.8z M205.1,13.8c2.9,0,5.2,1,7.2,3.1c1.9,2.1,2.9,4.6,2.9,7.7c0,2-0.4,3.8-1.2,5.4c-1.8,3.2-5.2,5.2-8.8,5.2
	c-1.8,0-3.5-0.5-5.1-1.4c-4.8-3.2-6.4-9.6-3.7-14.7C198,16,201.4,13.9,205.1,13.8L205.1,13.8z M61.9,14c2.7,0,5.1,1,7.1,3.1
	c3.2,3.5,3.9,8.7,1.6,13c-1.7,3.2-5,5.3-8.7,5.2c-3.6,0-7-2-8.7-5.2c-0.9-1.6-1.3-3.5-1.3-5.4c0-3,1-5.5,2.9-7.6
	C56.9,15,59.2,14,61.9,14L61.9,14z M94.3,14.1c5.7,0,10.4,4.6,10.4,10.4c0,0.1,0,0.2,0,0.3c0,1.9-0.4,3.8-1.3,5.4
	c-1.9,3.2-5.4,5.1-9.1,5.2c-3.7,0-7.2-2.1-9-5.4c-1.8-3.3-1.8-7.3,0-10.6C87.1,16.1,90.6,14.1,94.3,14.1z M223.2,13.3h0.5
	c0.2,0,0.4,0,0.5-0.1c0.1,0,0.2-0.1,0.2-0.2l-0.1-0.2c0-0.1,0-0.1-0.1-0.2h-0.9V13.3z M222.8,14.7v-2.4h1.5c0.2,0.1,0.3,0.2,0.4,0.3
	l0.1,0.3c0,0.2-0.1,0.4-0.2,0.5c-0.2,0.1-0.4,0.2-0.6,0.2l0.2,0.1l0.4,0.5l0.3,0.5h-0.5l-0.2-0.4l-0.4-0.6h-0.5v1L222.8,14.7z
	 M223.8,11.5c-0.3,0-0.6,0.1-0.9,0.3c-0.3,0.1-0.5,0.4-0.7,0.7c-0.4,0.6-0.4,1.4,0,1.9c0.1,0.3,0.4,0.5,0.7,0.7
	c0.3,0.2,0.6,0.3,0.9,0.3c0.4,0,0.7-0.1,1-0.3c0.3-0.1,0.6-0.4,0.7-0.7c0.1-0.3,0.2-0.6,0.2-1c0-0.3-0.1-0.6-0.2-1
	c-0.2-0.3-0.4-0.5-0.7-0.7C224.4,11.6,224.1,11.5,223.8,11.5z M223.8,11.2c0.4,0,0.8,0.1,1.2,0.2s0.6,0.5,0.9,0.9
	c0.2,0.4,0.3,0.7,0.3,1.2c0,0.4-0.1,0.7-0.3,1.1c-0.2,0.4-0.5,0.6-0.9,0.9c-0.4,0.2-0.8,0.3-1.2,0.3c-0.4,0-0.7-0.1-1.1-0.3
	c-0.4-0.2-0.6-0.5-0.9-0.9c-0.2-0.4-0.3-0.7-0.3-1.2c0-0.4,0.1-0.8,0.3-1.2c0.2-0.4,0.5-0.6,0.9-0.9C223,11.3,223.5,11.2,223.8,11.2
	z"/>
</svg>
