<?xml version="1.0" encoding="utf-8"?>
<!-- Generator: Adobe Illustrator 26.0.3, SVG Export Plug-In . SVG Version: 6.00 Build 0)  -->
<svg version="1.1" id="Capa_1" xmlns="http://www.w3.org/2000/svg" xmlns:xlink="http://www.w3.org/1999/xlink" x="0px" y="0px"
	 viewBox="0 0 249 102" style="enable-background:new 0 0 249 102;" xml:space="preserve">
<style type="text/css">
	.st0{fill:#717171;}
	.st1{fill:#222222;}
</style>
<g id="surface1">
	<path class="st0" d="M4.9,40.8C7.8,30.1,20,27.5,31.3,27.2c9.3-0.3,19.6,1,19.6,1L46,45.9c0,0-10.3-1.2-19.6-1
		C15.2,45.3,2.9,47.8,0,58.6L4.9,40.8z"/>
	<path class="st1" d="M108.3,32.1L96.9,74h9.6l4.2-15.5h8.4c9.2,0,15.4-5.1,17-12.2c1.5-6.6-2.3-14.2-12.7-14.2
		C118.4,32.1,113.4,32.1,108.3,32.1z M116.6,37h3.7c3.9,0,7,3.1,6.2,8.5c-0.7,5-6.1,8-10.9,8h-3.6L116.6,37z"/>
	<path class="st1" d="M208,45.1c-8.1,0-13.9,7-15.4,13.9c-1.3,6.7,2.5,15.6,13.1,15.6c7.5,0,11.3-3.3,11.3-3.3l-1.7-4.3
		c0,0-3.2,2.6-7.6,2.6c-4.4,0-7.2-3.5-6.6-9h18C220.4,57.4,221.1,45.1,208,45.1z M208,49.7c5,0,3.9,6.6,3.9,6.6l-10.1,0
		C201.8,56.4,203.4,49.7,208,49.7z"/>
	<path class="st1" d="M140,44.1L124.2,102h9.2l14-51.4h9.6L150.7,74h9.2l7.7-28h-18.8c1-3.5,2-7.3,2.8-10.4c1.6-5.7,4.1-9.8,7.8-9.6
		c4.1,0.2,2,2.8,1.4,4.9c-0.8,2.8,1.3,5.7,5,5.7c7.9,0,9.9-14.6-5-14.6S142.1,36.3,140,44.1z"/>
	<path class="st1" d="M171.1,46l-1.3,4.7h11.7L163.1,74h26l1.3-4.7h-13.2L195.6,46H171.1z"/>
	<path class="st1" d="M243.8,45.5c-6,0-9.6,6.2-9.6,6.2l1.6-5.8h-9.2l-7.7,28h9.2c0,0,2.2-8.2,3.4-12.3c1.8-6.4,5.3-10.4,7-10.6
		c2-0.2,1.8,4.6,5.7,4.6C250.1,55.7,251.3,45.5,243.8,45.5z"/>
	<path class="st1" d="M75.2,74.1C42,72,3.5,54.9,4.9,40.8L0.3,57.5c-1.4,14.4,34.3,31.4,70,34.3L75.2,74.1z"/>
	<path class="st1" d="M87.2,51C84.3,61.7,72,64.3,60.8,64.6c-9.3,0.3-19.6-1-19.6-1L46,45.9c0,0,10.3,1.2,19.6,1
		c11.3-0.3,23.5-2.9,26.4-13.6L87.2,51z"/>
	<path class="st0" d="M16.9,17.7C50,19.8,88.6,36.9,87.2,51l4.6-16.7C93.2,19.9,57.4,2.9,21.8,0L16.9,17.7z"/>
	<path class="st0" d="M4.9,40.8C7.8,30.1,20,27.5,31.3,27.2c9.3-0.3,19.6,1,19.6,1L46,45.9c0,0-10.3-1.2-19.6-1
		C15.2,45.3,2.9,47.8,0,58.6L4.9,40.8z"/>
	<path class="st1" d="M75.2,74.1C42,72,3.5,54.9,4.9,40.8L0.3,57.5c-1.4,14.4,34.3,31.4,70,34.3L75.2,74.1z"/>
	<path class="st1" d="M87.2,51C84.3,61.7,72,64.3,60.8,64.6c-9.3,0.3-19.6-1-19.6-1L46,45.9c0,0,10.3,1.2,19.6,1
		c11.3-0.3,23.5-2.9,26.4-13.6L87.2,51z"/>
	<path class="st0" d="M16.9,17.7C50,19.8,88.6,36.9,87.2,51l4.6-16.7C93.2,19.9,57.4,2.9,21.8,0L16.9,17.7z"/>
</g>
</svg>
